<svg xmlns="http://www.w3.org/2000/svg" xml:space="preserve" width="2000" height="867" data-id="lg_KfW4pMujxKa0kN6fRT" data-version="1" viewBox="0 0 2000 867"><g data-padding="20"><g transform="translate(10 11.173)scale(.97423)"><rect width="286.8" height="450.117" x="484.823" y="-225.093" fill="none" rx="0" ry="0" transform="translate(516.38 642.19)"/><path fill="#2e30ff" d="M1032.183 766.795h-30.67l127.46-278.83h29.08l127.47 278.83h-31.07l-117.11-261.7h11.95Zm199.16-74.49h-179.64l8.76-23.9h162.12Z"/><path fill="#333" stroke="#2e30ff" stroke-width="5" d="M48.094-.004h34.284" transform="matrix(9.63 0 0 9.17 164.932 480.33)"/><path fill="#333" stroke="#2e30ff" stroke-width="5" d="M65.236 17.646v-35.3" transform="matrix(9.63 0 0 9.17 451.328 161.672)"/><path fill="#333" stroke="#2e30ff" stroke-width="5" d="m77.556 12.316-24.64-24.64" transform="matrix(9.63 0 0 9.17 247.268 279.414)"/><path fill="#333" stroke="#2e30ff" stroke-width="5" d="m77.556-12.324-24.64 24.64" transform="matrix(9.63 0 0 9.17 272.884 664.28)"/><path fill="#333" stroke="#2e30ff" stroke-width="5" d="M77.879-12.647 52.593 12.64" transform="matrix(9.63 0 0 9.17 654.328 269.052)"/></g><path fill="transparent" stroke="transparent" d="M612 0h776v867H612z"/></g></svg>