<svg xmlns="http://www.w3.org/2000/svg" xml:space="preserve" width="2000" height="124" data-id="lg_KfW4pMujxKa0kN6fRT" data-version="1" viewBox="0 0 2000 124"><g data-padding="20"><g transform="translate(10 1.928)scale(.9689)"><rect width="581.593" height="73.45" x="286.653" y="-376.44" fill="none" rx="0" ry="0" transform="translate(474.92 426.84)"/><path fill="#4d7e3e" d="M766.2 107.035h-5l20.8-45.5h4.75l20.79 45.5h-5.06l-19.11-42.7h1.95Zm32.5-12.15h-29.31l1.43-3.9h26.45Zm28.88 12.15h-5.01l-15.34-45.5h4.94l14.37 42.84h-2.47l14.82-42.84h4.42l14.62 42.84h-2.34l14.5-42.84h4.61l-15.34 45.5h-5.07l-13.97-40.62h1.3Zm58.29-21.06v-4.09h24.05v4.09Zm.52-20.28v37.18h27.37v4.16h-32.18v-45.5h31.2v4.16Zm48.37 41.73q-5.07 0-9.72-1.65-4.64-1.66-7.18-4.26l1.89-3.71q2.4 2.34 6.46 3.94 4.07 1.59 8.55 1.59 4.29 0 6.99-1.07 2.7-1.08 3.96-2.9 1.27-1.82 1.27-4.03 0-2.66-1.53-4.29-1.52-1.62-3.99-2.56-2.47-.95-5.46-1.66-2.99-.72-5.98-1.53t-5.5-2.18q-2.5-1.36-4.03-3.6-1.52-2.25-1.52-5.89 0-3.38 1.78-6.2 1.79-2.83 5.5-4.55 3.7-1.73 9.49-1.73 3.83 0 7.6 1.08 3.77 1.07 6.5 2.95l-1.62 3.84q-2.93-1.95-6.21-2.86t-6.34-.91q-4.09 0-6.76 1.1-2.66 1.11-3.93 2.96t-1.27 4.19q0 2.67 1.53 4.29 1.53 1.63 4.03 2.54t5.49 1.62q2.99.72 5.95 1.56 2.96.85 5.46 2.18t4.03 3.54 1.53 5.79q0 3.31-1.82 6.14t-5.56 4.55-9.59 1.72m44.45 0q-5.13 0-9.52-1.72t-7.61-4.87q-3.21-3.16-5-7.35t-1.79-9.2q0-5 1.79-9.19 1.79-4.2 5-7.35 3.22-3.15 7.58-4.87 4.35-1.73 9.55-1.73 5.14 0 9.49 1.73 4.36 1.72 7.57 4.84 3.22 3.12 5.01 7.34 1.79 4.23 1.79 9.23 0 5.01-1.79 9.23-1.79 4.23-5.01 7.35-3.21 3.12-7.57 4.84-4.35 1.72-9.49 1.72m0-4.29q4.1 0 7.57-1.39 3.48-1.4 6.05-3.97t4-5.98 1.43-7.51q0-4.09-1.43-7.5-1.43-3.42-4-5.98-2.57-2.57-6.05-3.97-3.47-1.4-7.57-1.4-4.09 0-7.6 1.4t-6.08 3.97q-2.57 2.56-4.03 5.98-1.46 3.41-1.46 7.5 0 4.03 1.46 7.48 1.46 3.44 4.03 6.01t6.08 3.97q3.51 1.39 7.6 1.39m36.4 3.9H1011v-45.5h3.96l20.8 35.49h-2.08l20.61-35.49h3.96v45.5h-4.61v-38.28h1.1l-18.98 32.5h-2.27l-19.11-32.5h1.23Zm58.89-21.06v-4.09h24.05v4.09Zm.52-20.28v37.18h27.37v4.16h-32.18v-45.5h31.2v4.16Zm49.33 25.75h-17.02v-4.03h17.02Zm13.27 15.59h-4.81v-45.5h17.03q5.78 0 9.94 1.86 4.16 1.85 6.4 5.33 2.25 3.47 2.25 8.41 0 4.81-2.25 8.29-2.24 3.48-6.4 5.33t-9.94 1.85h-14.37l2.15-2.21Zm31.52 0h-5.26l-11.7-16.51h5.2Zm-31.52-43.61v27.36l-2.15-2.27h14.24q6.82 0 10.36-2.99 3.55-2.99 3.55-8.39 0-5.46-3.55-8.45-3.54-2.99-10.36-2.99h-14.24Zm43.61 22.55v-4.09h24.05v4.09Zm.52-20.28v37.18h27.37v4.16h-32.18v-45.5h31.2v4.16Zm33.54 41.34h-5l20.79-45.5h4.75l20.8 45.5h-5.07l-19.11-42.7h1.95Zm32.5-12.15h-29.31l1.43-3.9h26.45Zm33.28 12.54q-5.13 0-9.49-1.72-4.35-1.72-7.54-4.84-3.18-3.12-4.97-7.35-1.79-4.22-1.79-9.23 0-5 1.79-9.23 1.79-4.22 5-7.34 3.22-3.12 7.58-4.84 4.35-1.73 9.49-1.73 4.94 0 9.29 1.66 4.36 1.66 7.35 4.97l-3.06 3.06q-2.79-2.86-6.17-4.13t-7.28-1.27q-4.1 0-7.61 1.4t-6.11 3.97q-2.6 2.56-4.06 5.98-1.46 3.41-1.46 7.5 0 4.1 1.46 7.51t4.06 5.98 6.11 3.97q3.51 1.39 7.61 1.39 3.9 0 7.28-1.3t6.17-4.16l3.06 3.06q-2.99 3.31-7.35 5-4.35 1.69-9.36 1.69m37.76-.39h-4.8v-41.34h-15.99v-4.16h36.79v4.16h-16Z"/><path fill="#333" stroke="#4d7e3e" stroke-width="5" d="M700.398 59.032h40.456m11.916-17.228V.15m-10.467 47.565L713.227 18.64m32.215 49.525-29.076 29.076m76.197-80.315-29.838 29.838" vector-effect="non-scaling-stroke"/></g><path fill="transparent" stroke="transparent" d="M678.5 0h643v124h-643z"/></g></svg>