<svg width="644" height="124" viewBox="0 0 644 124" fill="none" xmlns="http://www.w3.org/2000/svg">
<path d="M74.3712 105.634H69.5267L89.6798 61.5493H94.2821L114.426 105.634H109.523L91.0072 64.2622H92.8966L74.3712 105.634ZM105.86 93.8621H77.462L78.8475 90.0834H104.475L105.86 93.8621ZM133.842 105.634H128.988L114.125 61.5493H118.912L132.835 103.057H130.441L144.801 61.5493H149.083L163.248 103.057H160.981L175.03 61.5493H179.497L164.634 105.634H159.722L146.186 66.2775H147.446L133.842 105.634ZM190.319 85.2292V81.2664H213.622V85.2292H190.319ZM190.823 65.5799V101.604H217.342V105.634H186.163V61.5493H216.393V65.5799H190.823ZM237.689 106.012C234.414 106.012 231.275 105.479 228.271 104.413C225.274 103.341 222.955 101.965 221.315 100.286L223.146 96.6913C224.696 98.2027 226.782 99.4752 229.405 100.509C232.034 101.536 234.795 102.049 237.689 102.049C240.46 102.049 242.718 101.704 244.462 101.013C246.206 100.315 247.485 99.3783 248.298 98.2027C249.119 97.0271 249.529 95.7256 249.529 94.2981C249.529 92.5799 249.035 91.1944 248.047 90.1415C247.065 89.0951 245.776 88.2683 244.181 87.6611C242.585 87.0475 240.822 86.5113 238.89 86.0527C236.959 85.5877 235.028 85.0935 233.096 84.5703C231.165 84.0471 229.389 83.343 227.767 82.4581C226.153 81.5796 224.851 80.417 223.863 78.9701C222.881 77.5167 222.39 75.6145 222.39 73.2633C222.39 71.08 222.965 69.0776 224.115 67.2561C225.271 65.4281 227.047 63.9586 229.444 62.8476C231.834 61.7301 234.899 61.1714 238.639 61.1714C241.112 61.1714 243.567 61.5202 246.002 62.2178C248.437 62.9089 250.537 63.8617 252.3 65.0761L250.73 68.7966C248.838 67.5371 246.832 66.6134 244.714 66.0256C242.595 65.4378 240.547 65.1439 238.571 65.1439C235.929 65.1439 233.746 65.4991 232.021 66.2097C230.303 66.9267 229.033 67.8826 228.213 69.0776C227.393 70.2726 226.983 71.6258 226.983 73.1373C226.983 74.8619 227.477 76.2475 228.465 77.2939C229.453 78.3468 230.755 79.1671 232.37 79.7549C233.985 80.3427 235.758 80.8659 237.689 81.3245C239.62 81.7896 241.542 82.2934 243.454 82.836C245.366 83.385 247.129 84.0891 248.744 84.9482C250.359 85.8073 251.661 86.9506 252.649 88.3781C253.637 89.8056 254.131 91.6756 254.131 93.988C254.131 96.1261 253.543 98.1091 252.368 99.9371C251.192 101.765 249.397 103.235 246.981 104.346C244.565 105.457 241.468 106.012 237.689 106.012ZM280.757 106.012C277.443 106.012 274.368 105.457 271.533 104.346C268.697 103.235 266.239 101.662 264.159 99.627C262.086 97.5859 260.471 95.2121 259.315 92.5056C258.159 89.7992 257.58 86.8279 257.58 83.5917C257.58 80.3621 258.159 77.394 259.315 74.6875C260.471 71.9746 262.086 69.6008 264.159 67.5661C266.239 65.5314 268.687 63.9586 271.504 62.8476C274.313 61.7301 277.398 61.1714 280.757 61.1714C284.077 61.1714 287.142 61.7301 289.951 62.8476C292.768 63.9586 295.213 65.5217 297.286 67.5371C299.366 69.5524 300.984 71.9229 302.14 74.6488C303.296 77.3811 303.875 80.3621 303.875 83.5917C303.875 86.8279 303.296 89.8088 302.14 92.5347C300.984 95.267 299.366 97.6408 297.286 99.6561C295.213 101.671 292.768 103.235 289.951 104.346C287.142 105.457 284.077 106.012 280.757 106.012ZM280.757 101.856C283.405 101.856 285.85 101.407 288.091 100.509C290.339 99.6044 292.293 98.3222 293.953 96.6622C295.613 95.0021 296.905 93.0708 297.829 90.8682C298.752 88.6655 299.214 86.2401 299.214 83.5917C299.214 80.9499 298.752 78.5276 297.829 76.325C296.905 74.1159 295.613 72.1846 293.953 70.531C292.293 68.8709 290.339 67.5887 288.091 66.6844C285.85 65.7801 283.405 65.328 280.757 65.328C278.115 65.328 275.66 65.7801 273.393 66.6844C271.126 67.5887 269.162 68.8709 267.502 70.531C265.842 72.1846 264.54 74.1159 263.597 76.325C262.654 78.5276 262.183 80.9499 262.183 83.5917C262.183 86.1948 262.654 88.6106 263.597 90.8391C264.54 93.0611 265.842 95.0021 267.502 96.6622C269.162 98.3222 271.126 99.6044 273.393 100.509C275.66 101.407 278.115 101.856 280.757 101.856ZM316.025 105.634H311.558V61.5493H315.395L335.548 95.9355H333.533L353.502 61.5493H357.338V105.634H352.872V68.5447H353.938L335.548 100.034H333.348L314.833 68.5447H316.025V105.634ZM373.083 85.2292V81.2664H396.385V85.2292H373.083ZM373.587 65.5799V101.604H400.106V105.634H368.926V61.5493H399.156V65.5799H373.587ZM421.383 90.5291H404.892V86.6244H421.383V90.5291ZM434.24 105.634H429.58V61.5493H446.08C449.813 61.5493 453.024 62.15 455.711 63.3514C458.398 64.5464 460.465 66.2678 461.912 68.5156C463.365 70.757 464.092 73.4732 464.092 76.6641C464.092 79.771 463.365 82.4484 461.912 84.6963C460.465 86.9441 458.398 88.6655 455.711 89.8605C453.024 91.0555 449.813 91.653 446.08 91.653H432.157L434.24 89.5117V105.634ZM464.78 105.634H459.683L448.347 89.6377H453.386L464.78 105.634ZM434.24 63.3805V89.8896L432.157 87.6902H445.954C450.359 87.6902 453.705 86.7245 455.992 84.7932C458.285 82.8618 459.431 80.1521 459.431 76.6641C459.431 73.1373 458.285 70.4082 455.992 68.4769C453.705 66.5455 450.359 65.5799 445.954 65.5799H432.157L434.24 63.3805ZM476.494 85.2292V81.2664H499.796V85.2292H476.494ZM476.998 65.5799V101.604H503.516V105.634H472.337V61.5493H502.567V65.5799H476.998ZM509.495 105.634H504.65L524.793 61.5493H529.396L549.549 105.634H544.637L526.121 64.2622H528.01L509.495 105.634ZM540.984 93.8621H512.585L513.971 90.0834H539.598L540.984 93.8621ZM573.229 106.012C569.915 106.012 566.85 105.457 564.034 104.346C561.224 103.235 558.789 101.671 556.728 99.6561C554.674 97.6408 553.069 95.267 551.913 92.5347C550.757 89.8088 550.179 86.8279 550.179 83.5917C550.179 80.3621 550.757 77.3811 551.913 74.6488C553.069 71.9229 554.684 69.5524 556.757 67.5371C558.837 65.5217 561.285 63.9586 564.102 62.8476C566.912 61.7301 569.976 61.1714 573.297 61.1714C576.487 61.1714 579.488 61.7075 582.298 62.7798C585.114 63.852 587.488 65.4572 589.419 67.5952L586.454 70.56C584.652 68.7127 582.659 67.3788 580.476 66.5585C578.293 65.7381 575.942 65.328 573.423 65.328C570.774 65.328 568.316 65.7801 566.049 66.6844C563.782 67.5887 561.809 68.8709 560.129 70.531C558.45 72.1846 557.139 74.1159 556.195 76.325C555.252 78.5276 554.781 80.9499 554.781 83.5917C554.781 86.2401 555.252 88.6655 556.195 90.8682C557.139 93.0708 558.45 95.0021 560.129 96.6622C561.809 98.3222 563.782 99.6044 566.049 100.509C568.316 101.407 570.774 101.856 573.423 101.856C575.942 101.856 578.293 101.436 580.476 100.596C582.659 99.7562 584.652 98.4127 586.454 96.5653L589.419 99.5301C587.488 101.668 585.114 103.283 582.298 104.375C579.488 105.466 576.465 106.012 573.229 106.012ZM609.814 105.634H605.164V65.5799H589.671V61.5493H625.317V65.5799H609.814V105.634Z" fill="#4D7E3E"/>
<path d="M10.6157 59.124H49.8135ZM61.359 42.4318V2.07324ZM51.2174 48.159L23.0457 19.9882ZM54.2589 67.973L26.0871 96.1447ZM99.9144 18.3275L71.0043 47.2375Z" fill="#333333"/>
<path d="M10.6157 59.124H49.8135M61.359 42.4318V2.07324M51.2174 48.159L23.0457 19.9882M54.2589 67.973L26.0871 96.1447M99.9144 18.3275L71.0043 47.2375" stroke="#4D7E3E" stroke-width="4.8445"/>
</svg>
